<svg width="801" height="503" viewBox="0 0 801 503" fill="none" xmlns="http://www.w3.org/2000/svg">
<path d="M516.514 136.386H460.095L457.434 161.494H518.111L516.514 136.386Z" fill="black"/>
<path d="M521.47 183.463H455.323L452.203 210.664H523.342L521.47 183.463Z" fill="black"/>
<path d="M525.379 233.679H449.505L445.926 262.972H527.527L525.379 233.679Z" fill="black"/>
<path d="M529.722 287.034H441.708L437.556 317.372H515.349L531.711 309.003L529.722 287.034Z" fill="black"/>
<path d="M432.326 361.835L462.664 115.463M516.019 115.463L531.711 306.388" stroke="black" stroke-width="5" stroke-linecap="round"/>
<path d="M452.726 115.463H528.573" stroke="black" stroke-width="5" stroke-linecap="round"/>
<path d="M452.726 68.3853H528.573" stroke="black" stroke-width="5" stroke-linecap="round"/>
<path d="M463.71 79.8931V99.7702" stroke="black" stroke-width="5" stroke-linecap="round"/>
<path d="M514.973 79.8931V99.7702" stroke="black" stroke-width="5" stroke-linecap="round"/>
<circle cx="490.911" cy="89.3085" r="9.41548" fill="black"/>
<rect x="481.495" y="50.6006" width="18.831" height="9.41548" rx="4.70774" fill="black"/>
<path d="M406.695 64.7237L203.739 3" stroke="black" stroke-width="5" stroke-linecap="round"/>
<path d="M397.802 93.4931L23.7983 78.3237" stroke="black" stroke-width="5" stroke-linecap="round"/>
<path d="M392.571 113.894L3.39819 233.156" stroke="black" stroke-width="5" stroke-linecap="round"/>
<path d="M412.972 144.755L104.876 364.45" stroke="black" stroke-width="5" stroke-linecap="round"/>
<path d="M210.539 448.883C229.969 442.952 374.877 402.706 426.639 367.155" stroke="black" stroke-width="5" stroke-linecap="round"/>
<path d="M348.081 443.499C373.578 402.607 405.058 375.296 468.087 342.634C546.874 301.807 564.873 294.64 598.573 244.282" stroke="black" stroke-width="5" stroke-linecap="round"/>
<path d="M598.574 244.282C605.666 258.292 623.7 294.106 636.859 313.27M622.679 306.025C636.015 311.182 664.202 328.144 670.264 354.74C676.327 381.336 700.863 400.426 710.77 411.797" stroke="black" stroke-width="5" stroke-linecap="round"/>
<path d="M626.207 352.595C635.691 367.235 653.447 385.912 709.394 409.177" stroke="black" stroke-width="5" stroke-linecap="round"/>
<path d="M782.874 493.415C766.357 473.223 728 427.719 706.709 407.245" stroke="black" stroke-width="5" stroke-linecap="round"/>
<path d="M598.574 244.282C593.737 263.836 585.25 307.825 597.354 332.654" stroke="black" stroke-width="5" stroke-linecap="round"/>
<path d="M590.003 313.929C579.384 319.581 565.845 340.299 597.719 384.265" stroke="black" stroke-width="5" stroke-linecap="round"/>
<path d="M565.462 392.849C574.035 393.739 592.426 393.469 597.408 385.264" stroke="black" stroke-width="5" stroke-linecap="round"/>
<path d="M577.031 475.342L565.462 392.85" stroke="black" stroke-width="5" stroke-linecap="round"/>
</svg>
