<svg width="636" height="500" viewBox="0 0 636 500" fill="none" xmlns="http://www.w3.org/2000/svg">
<path d="M203.827 28.469C290.449 14.4205 376.5 94.2313 395.008 208.353C413.517 322.475 357.101 425.392 270.479 439.44C183.856 453.488 97.8066 373.677 79.2982 259.555C60.79 145.434 117.205 42.5177 203.827 28.469Z" stroke="black" stroke-width="5"/>
<path d="M217.534 73.3643C249.34 68.2061 281.151 80.8814 306.901 105.944C332.649 131.006 352.194 168.348 359.282 212.055C366.371 255.764 359.63 297.369 343.122 329.284C326.614 361.2 300.439 383.28 268.633 388.438C236.827 393.596 205.015 380.921 179.266 355.859C153.517 330.797 133.973 293.454 126.884 249.746C119.796 206.038 126.536 164.433 143.044 132.518C159.553 100.602 185.728 78.5226 217.534 73.3643Z" stroke="black" stroke-width="5"/>
<ellipse cx="254.177" cy="232.641" rx="60.6032" ry="81.7144" transform="rotate(-9.21208 254.177 232.641)" fill="black"/>
<path d="M114.925 417.238C224.363 522.573 346.115 461.014 372.107 394.666C360.532 460.847 282.109 498.394 216.839 500C145.02 500 55.417 440.493 30.7929 386.457C-59.8216 187.611 78.2173 47.6528 147.073 28.0454C17.7976 88.9209 -2.6951 304.028 114.925 417.238Z" fill="black"/>
<path d="M253.091 214.774L448.029 90.1385L487.017 65.6636" stroke="black" stroke-width="5" stroke-linecap="round"/>
<path d="M443.241 80.0274L447.797 48.7867C447.942 47.7929 448.575 46.9376 449.482 46.5079L528.72 9.0062C531.399 7.73821 534.098 10.71 532.579 13.2552L514.758 43.1188C513.628 45.0115 514.857 47.4353 517.051 47.6428L554.528 51.1879C557.34 51.4539 558.26 55.104 555.91 56.6708L488.219 101.798C487.459 102.304 486.511 102.437 485.641 102.16L448.029 90.1385" stroke="black" stroke-width="5" stroke-linecap="round"/>
<path d="M260.615 229.139L504.639 141.74L547.94 126.116" stroke="black" stroke-width="5" stroke-linecap="round"/>
<path d="M502.112 130.842L513.208 101.285C513.561 100.344 514.361 99.6432 515.339 99.4165L600.739 79.6244C603.627 78.9552 605.633 82.433 603.607 84.597L579.842 109.987C578.336 111.596 579.021 114.226 581.121 114.896L616.986 126.33C619.677 127.188 619.8 130.95 617.17 131.981L541.43 161.68C540.581 162.013 539.625 161.941 538.835 161.485L504.64 141.74" stroke="black" stroke-width="5" stroke-linecap="round"/>
<path d="M451.061 201.043L465.857 176.385C466.371 175.528 467.278 174.984 468.275 174.933L546.007 170.94C548.966 170.788 550.331 174.56 547.96 176.337L523.606 194.583C521.853 195.897 522.052 198.585 523.98 199.625L552.699 215.114C555.171 216.447 554.62 220.141 551.867 220.696L480.691 235.031C479.781 235.215 478.837 234.966 478.135 234.358L451.431 211.238" stroke="black" stroke-width="5" stroke-linecap="round"/>
<path d="M264.719 243.502L451.43 211.238L492.363 204.165" stroke="black" stroke-width="5" stroke-linecap="round"/>
</svg>
