<svg xmlns="http://www.w3.org/2000/svg" viewBox="0 0 119.06 31.33">
  <defs>
    <style>.cls-1{fill:#fff;}.cls-2{fill:#86ee02;}</style>
  </defs>
  <g id="Layer_2" data-name="Layer 2">
    <g id="Layer_1-2" data-name="Layer 1">
      <path class="cls-2" d="M35.93,3.3a4.15,4.15,0,0,0-.86-1.73A4.11,4.11,0,0,0,33.53.4,4.16,4.16,0,0,0,31.66.05L14.27,0h0a6,6,0,0,0-3.6,1.35A6.44,6.44,0,0,0,10,2L5.31,6.1A5.67,5.67,0,0,0,3.44,9.25h0L2.09,16.08a2.3,2.3,0,0,0,0,1,2.2,2.2,0,0,0,.31.7l-.06.06a2.69,2.69,0,0,0-.9,1.52L.11,26.18a4.35,4.35,0,0,0,0,1.9A4.15,4.15,0,0,0,1,29.81,4.36,4.36,0,0,0,2.51,31a4.24,4.24,0,0,0,1.87.35H21.76a5.86,5.86,0,0,0,3.78-1.49l5.07-4.45h0a6,6,0,0,0,2-3.22v0l3.32-17A4.16,4.16,0,0,0,35.93,3.3Zm-1.55,2-3.31,17a4.7,4.7,0,0,1-4.42,3.64H9.35a2.95,2.95,0,0,1-2.41-1.07,2.93,2.93,0,0,1-.6-1.21,3,3,0,0,1,0-1.36l1.34-6.86a1.48,1.48,0,0,1,.53-.85,1.51,1.51,0,0,1,.94-.35,29.59,29.59,0,0,1,9,1.36l.63,3.93a.38.38,0,0,0,.4.32.62.62,0,0,0,.32-.09.69.69,0,0,0,.22-.23l2.13-3.93,4.27-1.35a.55.55,0,0,0,.27-.17.55.55,0,0,0,.15-.28.39.39,0,0,0,0-.28.41.41,0,0,0-.21-.18l-3.75-1.34L22,8a.45.45,0,0,0-.14-.24.42.42,0,0,0-.27-.09.59.59,0,0,0-.31.09A.64.64,0,0,0,21,8l-2.14,3.93a35.53,35.53,0,0,1-9.51,1.36,1,1,0,0,1-.46-.07,1,1,0,0,1-.37-.27,1.07,1.07,0,0,1-.21-.41,1.19,1.19,0,0,1,0-.46L9.66,5.2a4.72,4.72,0,0,1,1.58-2.57,4.66,4.66,0,0,1,2.83-1.06l17.31.05a2.93,2.93,0,0,1,1.34.24,3.07,3.07,0,0,1,1.07.82,2.82,2.82,0,0,1,.6,1.21A3,3,0,0,1,34.38,5.25Z"/>
      <polygon class="cls-1" points="50.13 11.86 46.74 11.86 48.02 5.83 44.09 5.83 42.81 11.86 39.42 11.86 38.68 15.31 42.08 15.31 39.73 26.35 43.66 26.35 46 15.31 49.39 15.31 50.13 11.86"/>
      <path class="cls-1" d="M58.36,23a5.79,5.79,0,0,1-2.09.38,3.74,3.74,0,0,1-2.05-.53,2.59,2.59,0,0,1-1.1-1.5,3.69,3.69,0,0,1-.13-.83l10.58,0a6.62,6.62,0,0,0,.36-.92c.09-.27.16-.53.22-.79A6.87,6.87,0,0,0,64,15.05a5,5,0,0,0-2-2.58,6.13,6.13,0,0,0-3.5-.94,8.8,8.8,0,0,0-4.09,1,10.24,10.24,0,0,0-3.32,2.7,9,9,0,0,0-1.82,3.86,6.77,6.77,0,0,0,.2,3.9,5.45,5.45,0,0,0,2.24,2.68,7.11,7.11,0,0,0,3.84,1A9.51,9.51,0,0,0,59,26a8.92,8.92,0,0,0,3-1.86l-1.82-2.31A5.49,5.49,0,0,1,58.36,23Zm-4.31-6.18a4.73,4.73,0,0,1,1.65-1.47,4.47,4.47,0,0,1,2.15-.52,3.07,3.07,0,0,1,1.78.46,2.22,2.22,0,0,1,.88,1.34,3.77,3.77,0,0,1,.11.93l-7,0A6.28,6.28,0,0,1,54.05,16.79Z"/>
			<polygon class="cls-1" points="50.13 11.86 46.74 11.86 48.02 5.83 44.09 5.83 42.81 11.86 39.42 11.86 38.68 15.31 42.08 15.31 39.73 26.35 43.66 26.35 46 15.31 49.39 15.31 50.13 11.86"/>
			<path class="cls-1" d="M58.36,23a5.79,5.79,0,0,1-2.09.38,3.74,3.74,0,0,1-2.05-.53,2.59,2.59,0,0,1-1.1-1.5,3.69,3.69,0,0,1-.13-.83l10.58,0a6.62,6.62,0,0,0,.36-.92c.09-.27.16-.53.22-.79A6.87,6.87,0,0,0,64,15.05a5,5,0,0,0-2-2.58,6.13,6.13,0,0,0-3.5-.94,8.8,8.8,0,0,0-4.09,1,10.24,10.24,0,0,0-3.32,2.7,9,9,0,0,0-1.82,3.86,6.77,6.77,0,0,0,.2,3.9,5.45,5.45,0,0,0,2.24,2.68,7.11,7.11,0,0,0,3.84,1A9.51,9.51,0,0,0,59,26a8.92,8.92,0,0,0,3-1.86l-1.82-2.31A5.49,5.49,0,0,1,58.36,23Zm-4.31-6.18a4.73,4.73,0,0,1,1.65-1.47,4.47,4.47,0,0,1,2.15-.52,3.07,3.07,0,0,1,1.78.46,2.22,2.22,0,0,1,.88,1.34,3.77,3.77,0,0,1,.11.93l-7,0A6.28,6.28,0,0,1,54.05,16.79Z"/>
			<path class="cls-1" d="M78.84,14.42a4.3,4.3,0,0,0-1.54-2.07,4.46,4.46,0,0,0-2.69-.79,6.89,6.89,0,0,0-3.1.72,7.11,7.11,0,0,0-1.45,1l.29-1.37H66.42L63.34,26.35h3.93L69,18a3.58,3.58,0,0,1,.7-1.53,3.54,3.54,0,0,1,2.83-1.38,2.29,2.29,0,0,1,1.92.81,2.42,2.42,0,0,1,.37,2.1l-1.77,8.31H77l2-9.18A5.09,5.09,0,0,0,78.84,14.42Z"/>
			<path class="cls-1" d="M89.39,18.55a6,6,0,0,0-1.58-.8c-.57-.19-1.11-.36-1.64-.51a4.73,4.73,0,0,1-1.26-.52.74.74,0,0,1-.34-.84,1.09,1.09,0,0,1,.62-.75,3,3,0,0,1,1.39-.27,3.9,3.9,0,0,1,1.71.36,3,3,0,0,1,1.24,1.17L92.4,14a4.39,4.39,0,0,0-2-1.89,7.18,7.18,0,0,0-3.12-.63,8,8,0,0,0-3.09.57,6.08,6.08,0,0,0-2.28,1.59,5.22,5.22,0,0,0-1.18,2.4,3.59,3.59,0,0,0,.07,2.14,2.76,2.76,0,0,0,1.09,1.29,7.32,7.32,0,0,0,1.6.75c.56.19,1.11.36,1.64.51a4,4,0,0,1,1.25.56.85.85,0,0,1,.33.93,1.15,1.15,0,0,1-.67.81,3.49,3.49,0,0,1-1.51.27,4.92,4.92,0,0,1-2.1-.42,3.61,3.61,0,0,1-1.48-1.26L78.1,24a4.89,4.89,0,0,0,1.41,1.42,6.94,6.94,0,0,0,2,.92,8.17,8.17,0,0,0,2.34.33,7.62,7.62,0,0,0,4.44-1.25,5.31,5.31,0,0,0,2.24-3.37,3.67,3.67,0,0,0-.06-2.16A3.09,3.09,0,0,0,89.39,18.55Z"/>
			<path class="cls-1" d="M100.64,23a5.83,5.83,0,0,1-2.09.38,3.74,3.74,0,0,1-2-.53,2.61,2.61,0,0,1-1.11-1.5,4.36,4.36,0,0,1-.13-.83l10.59,0c.15-.34.27-.65.36-.92a6.18,6.18,0,0,0,.21-.79,6.87,6.87,0,0,0-.12-3.71,5,5,0,0,0-2-2.58,6.11,6.11,0,0,0-3.5-.94,8.79,8.79,0,0,0-4.08,1,10.13,10.13,0,0,0-3.32,2.7,9.14,9.14,0,0,0-1.83,3.86A6.68,6.68,0,0,0,91.8,23,5.43,5.43,0,0,0,94,25.67a7.17,7.17,0,0,0,3.85,1A9.51,9.51,0,0,0,101.3,26a9,9,0,0,0,3-1.86l-1.81-2.31A5.7,5.7,0,0,1,100.64,23Zm-4.31-6.18A4.7,4.7,0,0,1,98,15.32a4.54,4.54,0,0,1,2.16-.52,3,3,0,0,1,1.77.46,2.23,2.23,0,0,1,.89,1.34,3.79,3.79,0,0,1,.1.93l-7,0A5.19,5.19,0,0,1,96.33,16.79Z"/>
			<polygon class="cls-1" points="110.23 4.66 105.62 26.35 109.55 26.35 114.16 4.66 110.23 4.66"/>
			<polygon class="cls-1" points="115.13 4.66 110.52 26.35 114.45 26.35 119.06 4.66 115.13 4.66"/>
		</g>
	</g>
</svg>
